<svg xmlns="http://www.w3.org/2000/svg" width="1024" height="1024" viewBox="0 0 1024 1024" role="img" aria-label="Hiraku">
  <title>Hiraku — 圓角方 / rounded square</title>
  <path d="M 666.991 0 C 769.792 0 821.18 0 876.518 17.493 C 936.934 39.484 984.516 87.066 1006.507 147.482 C 1024 202.812 1024 254.217 1024 357.009 L 1024 666.991 C 1024 769.792 1024 821.18 1006.507 876.518 C 984.516 936.934 936.934 984.516 876.518 1006.498 C 821.18 1024 769.792 1024 666.991 1024 L 357.009 1024 C 254.208 1024 202.812 1024 147.482 1006.498 C 87.066 984.516 39.484 936.934 17.493 876.518 C 0 821.18 0 769.792 0 666.991 L 0 357.009 C 0 254.217 0 202.812 17.493 147.482 C 39.484 87.066 87.066 39.484 147.482 17.493 C 202.812 0 254.208 0 357.009 0 L 666.991 0 Z" fill="#E2342B"></path>
  <g fill="#FFFFFF">
    <rect x="219" y="174" width="150" height="675"></rect>
    <rect x="655" y="174" width="150" height="675"></rect>
    <rect x="219" y="447" width="586" height="130"></rect>
  </g>
</svg>